<svg xmlns="http://www.w3.org/2000/svg" fill="none" viewBox="0 0 48 48" id="Enable--Streamline-Sharp----Material-Symbols.svg">
  <path fill="#000" d="M24 44C21.2333 44 18.6333 43.475 16.2 42.425C13.7667 41.375 11.65 39.9501 9.85 38.1501C8.05 36.35 6.625 34.2334 5.575 31.8C4.525 29.3667 4 26.7667 4 24C4 19.3334 5.44167 15.1917 8.325 11.575C11.2083 7.95838 14.9333 5.60005 19.5 4.50005V7.70005C15.8 8.70005 12.7917 10.7084 10.475 13.725C8.15833 16.7417 7 20.1667 7 24C7 28.7334 8.65 32.75 11.95 36.05C15.25 39.35 19.2667 41 24 41C28.7333 41 32.75 39.35 36.05 36.05C39.35 32.75 41 28.7334 41 24C41 20.1667 39.8417 16.7417 37.525 13.725C35.2083 10.7084 32.2 8.70005 28.5 7.70005V4.50005C33.0667 5.60005 36.7917 7.95838 39.675 11.575C42.5583 15.1917 44 19.3334 44 24C44 26.7667 43.475 29.3667 42.425 31.8C41.375 34.2334 39.95 36.35 38.15 38.1501C36.35 39.9501 34.2333 41.375 31.8 42.425C29.3667 43.475 26.7667 44 24 44ZM24 31.3L14 21.3L16.1 19.2L22.5 25.6V4.05005H25.5V25.6L31.9 19.2L34 21.3L24 31.3Z" stroke-width="1"></path>
</svg>